<?xml version="1.0" encoding="UTF-8"?>
<!DOCTYPE svg PUBLIC "-//W3C//DTD SVG 1.1//EN" "http://www.w3.org/Graphics/SVG/1.1/DTD/svg11.dtd">
<!-- Creator: CorelDRAW 2017 -->
<svg xmlns="http://www.w3.org/2000/svg" xml:space="preserve" width="30px" height="30px" version="1.1" shape-rendering="geometricPrecision" text-rendering="geometricPrecision" image-rendering="optimizeQuality" fill-rule="evenodd" clip-rule="evenodd"
viewBox="0 0 1.5 1.5"
 xmlns:xlink="http://www.w3.org/1999/xlink">
 <g id="Layer_x0020_1">
  <metadata id="CorelCorpID_0Corel-Layer"/>
  <path fill="#FF4141" stroke="#FF4141" stroke-width="0.15" d="M0.85 0.08c-0.08,0 -0.17,0.02 -0.26,0.04 -0.06,0.01 -0.12,0.03 -0.17,0.05 -0.06,0.02 -0.11,0.05 -0.16,0.08 -0.05,0.03 -0.09,0.08 -0.13,0.15 -0.02,0.07 -0.04,0.14 -0.05,0.22 -0.01,0.08 -0.01,0.16 0,0.24 0.01,0.08 0.03,0.16 0.06,0.22 0.06,0.14 0.14,0.24 0.23,0.29 0.11,0.06 0.23,0.06 0.34,0.04 0.12,-0.02 0.23,-0.06 0.34,-0.14 0.09,-0.06 0.18,-0.17 0.25,-0.3 0.04,-0.07 0.07,-0.14 0.09,-0.22 0.03,-0.09 0.04,-0.19 0.03,-0.29 -0.01,-0.04 -0.02,-0.09 -0.03,-0.12 -0.02,-0.04 -0.04,-0.07 -0.06,-0.09 -0.05,-0.06 -0.1,-0.08 -0.16,-0.08 -0.02,0 -0.05,0 -0.08,0 -0.01,0 -0.02,0.02 -0.02,0.05 0,0.02 0.01,0.04 0.02,0.04 0.05,0 0.11,-0.01 0.16,0.02 0.03,0.01 0.04,0.02 0.06,0.04 0.03,0.03 0.04,0.07 0.05,0.1 0.02,0.05 0.02,0.12 0.01,0.16 0,0.05 -0.01,0.1 -0.03,0.15 -0.02,0.06 -0.03,0.1 -0.06,0.15 -0.01,0.02 -0.01,0.03 -0.02,0.05 -0.04,0.05 -0.07,0.11 -0.11,0.15 -0.02,0.02 -0.04,0.04 -0.06,0.06 -0.05,0.04 -0.1,0.07 -0.15,0.1 -0.1,0.05 -0.22,0.08 -0.32,0.09 -0.03,0 -0.06,0 -0.08,0 -0.06,0 -0.1,-0.02 -0.16,-0.05 -0.04,-0.02 -0.08,-0.06 -0.11,-0.1 -0.05,-0.06 -0.09,-0.13 -0.11,-0.21 -0.04,-0.13 -0.03,-0.25 -0.02,-0.35 0.03,-0.17 0.11,-0.28 0.22,-0.34 0.06,-0.02 0.11,-0.04 0.17,-0.06 0.06,-0.02 0.11,-0.03 0.17,-0.04 0.05,-0.01 0.11,-0.01 0.17,-0.02 0.02,0 0.05,0 0.08,0 0.01,0 0.02,-0.02 0.02,-0.04 0,-0.01 0,-0.03 0,-0.03 -0.02,-0.03 -0.1,-0.01 -0.12,-0.01z"/>
 </g>
</svg>
